<svg xmlns="http://www.w3.org/2000/svg" width="20.796" height="19.697" viewBox="0 0 20.796 19.697">
  <path id="XMLID_22_" d="M20.519,18.168l-6.445-6.1a7.181,7.181,0,0,0,1.681-4.6A7.687,7.687,0,0,0,7.877,0,7.687,7.687,0,0,0,0,7.461a7.687,7.687,0,0,0,7.877,7.461,8.12,8.12,0,0,0,4.859-1.593l6.445,6.1a.983.983,0,0,0,1.337,0A.862.862,0,0,0,20.519,18.168ZM1.891,7.461A5.842,5.842,0,0,1,7.877,1.791a5.842,5.842,0,0,1,5.987,5.671,5.842,5.842,0,0,1-5.987,5.671A5.842,5.842,0,0,1,1.891,7.461Z" fill="#a1a9b7"/>
</svg>
